<svg xmlns="http://www.w3.org/2000/svg" viewBox="0 0 800 600" width="800" height="600">
  <defs>
    <linearGradient id="hsky" x1="0" y1="0" x2="0" y2="1">
      <stop offset="0%" stop-color="#1a2a4a"/>
      <stop offset="60%" stop-color="#2a3a6a"/>
      <stop offset="61%" stop-color="#1a3a5a"/>
      <stop offset="100%" stop-color="#0d2a4a"/>
    </linearGradient>
  </defs>
  <rect width="800" height="600" fill="url(#hsky)"/>
  <!-- City lights glow -->
  <ellipse cx="400" cy="0" rx="500" ry="200" fill="#FFD700" opacity="0.05"/>
  <!-- Water -->
  <rect x="0" y="380" width="800" height="220" fill="#0d2a4a"/>
  <ellipse cx="400" cy="390" rx="380" ry="15" fill="none" stroke="#4A8AB0" stroke-width="1" opacity="0.4"/>
  <ellipse cx="400" cy="415" rx="380" ry="12" fill="none" stroke="#4A8AB0" stroke-width="1" opacity="0.3"/>
  <!-- Building reflections in water -->
  <rect x="200" y="390" width="25" height="120" fill="#FFD700" opacity="0.08"/>
  <rect x="380" y="390" width="20" height="140" fill="#87CEEB" opacity="0.06"/>
  <rect x="550" y="390" width="30" height="110" fill="#FFD700" opacity="0.07"/>
  <!-- Skyline - tall buildings -->
  <rect x="80" y="180" width="55" height="200" fill="#1a2a4a"/>
  <rect x="82" y="182" width="51" height="196" fill="#1E3A5A"/>
  <!-- Windows lit -->
  <rect x="88" y="195" width="10" height="8" fill="#FFD700" opacity="0.8"/>
  <rect x="105" y="195" width="10" height="8" fill="#FFD700" opacity="0.8"/>
  <rect x="122" y="195" width="10" height="8" fill="#87CEEB" opacity="0.6"/>
  <rect x="88" y="215" width="10" height="8" fill="#87CEEB" opacity="0.6"/>
  <rect x="105" y="215" width="10" height="8" fill="#FFD700" opacity="0.8"/>
  <rect x="122" y="215" width="10" height="8" fill="#FFD700" opacity="0.7"/>
  <rect x="88" y="235" width="10" height="8" fill="#FFD700" opacity="0.9"/>
  <rect x="105" y="235" width="10" height="8" fill="#87CEEB" opacity="0.5"/>
  <rect x="88" y="255" width="10" height="8" fill="#FFD700" opacity="0.7"/>
  <rect x="122" y="255" width="10" height="8" fill="#FFD700" opacity="0.8"/>
  <!-- Main tall tower -->
  <rect x="340" y="100" width="80" height="280" fill="#162035"/>
  <rect x="342" y="102" width="76" height="276" fill="#1E2E48"/>
  <rect x="352" y="115" width="14" height="10" fill="#FFD700" opacity="0.9"/>
  <rect x="374" y="115" width="14" height="10" fill="#FFD700" opacity="0.9"/>
  <rect x="396" y="115" width="14" height="10" fill="#87CEEB" opacity="0.7"/>
  <rect x="352" y="135" width="14" height="10" fill="#87CEEB" opacity="0.6"/>
  <rect x="374" y="135" width="14" height="10" fill="#FFD700" opacity="0.9"/>
  <rect x="396" y="135" width="14" height="10" fill="#FFD700" opacity="0.8"/>
  <rect x="352" y="155" width="14" height="10" fill="#FFD700" opacity="0.9"/>
  <rect x="374" y="155" width="14" height="10" fill="#87CEEB" opacity="0.5"/>
  <rect x="396" y="155" width="14" height="10" fill="#FFD700" opacity="0.9"/>
  <rect x="352" y="175" width="14" height="10" fill="#FFD700" opacity="0.7"/>
  <rect x="374" y="175" width="14" height="10" fill="#FFD700" opacity="0.9"/>
  <rect x="352" y="195" width="14" height="10" fill="#87CEEB" opacity="0.6"/>
  <rect x="396" y="195" width="14" height="10" fill="#FFD700" opacity="0.8"/>
  <rect x="352" y="215" width="14" height="10" fill="#FFD700" opacity="0.9"/>
  <rect x="374" y="215" width="14" height="10" fill="#FFD700" opacity="0.7"/>
  <rect x="396" y="215" width="14" height="10" fill="#87CEEB" opacity="0.6"/>
  <!-- Mid buildings -->
  <rect x="160" y="220" width="65" height="160" fill="#1a2a4a"/>
  <rect x="162" y="222" width="61" height="156" fill="#1E3050"/>
  <rect x="170" y="235" width="12" height="9" fill="#FFD700" opacity="0.8"/>
  <rect x="190" y="235" width="12" height="9" fill="#87CEEB" opacity="0.6"/>
  <rect x="210" y="235" width="12" height="9" fill="#FFD700" opacity="0.9"/>
  <rect x="170" y="255" width="12" height="9" fill="#FFD700" opacity="0.7"/>
  <rect x="210" y="255" width="12" height="9" fill="#FFD700" opacity="0.8"/>
  <rect x="500" y="200" width="70" height="180" fill="#1a2a4a"/>
  <rect x="502" y="202" width="66" height="176" fill="#1E3050"/>
  <rect x="510" y="215" width="12" height="9" fill="#FFD700" opacity="0.9"/>
  <rect x="530" y="215" width="12" height="9" fill="#FFD700" opacity="0.7"/>
  <rect x="550" y="215" width="12" height="9" fill="#87CEEB" opacity="0.6"/>
  <rect x="510" y="235" width="12" height="9" fill="#87CEEB" opacity="0.5"/>
  <rect x="550" y="235" width="12" height="9" fill="#FFD700" opacity="0.9"/>
  <rect x="600" y="230" width="60" height="150" fill="#162035"/>
  <rect x="602" y="232" width="56" height="146" fill="#1E2E48"/>
  <rect x="610" y="245" width="10" height="8" fill="#FFD700" opacity="0.8"/>
  <rect x="628" y="245" width="10" height="8" fill="#FFD700" opacity="0.9"/>
  <rect x="646" y="245" width="10" height="8" fill="#87CEEB" opacity="0.6"/>
  <!-- Bridge -->
  <rect x="0" y="365" width="800" height="18" fill="#2A3A5A"/>
  <rect x="0" y="358" width="800" height="9" fill="#3A4A6A"/>
  <rect x="150" y="310" width="8" height="60" fill="#3A4A6A"/>
  <rect x="400" y="295" width="8" height="75" fill="#3A4A6A"/>
  <rect x="650" y="310" width="8" height="60" fill="#3A4A6A"/>
  <!-- Overlay -->
  <rect width="800" height="600" fill="rgba(5,15,35,0.35)"/>
</svg>
